<svg xmlns="http://www.w3.org/2000/svg" viewBox="0 0 128 128"><defs><style>.cls-1{fill:#fff}</style></defs><path d="M12.15 64.66c-.6 0-1.1-.03-1.52-.09-.45-.07-.81-.15-1.1-.26-.52-.18-.92-.48-1.19-.88-.25-.37-.38-.81-.38-1.27V24.85c0-1.3.41-2.29 1.21-2.95.71-.57 1.52-.87 2.41-.87h8.66c.91 0 1.81.04 2.65.12.86.08 1.88.25 3.03.5 1.24.27 2.51.78 3.77 1.51 1.28.74 2.39 1.67 3.3 2.77.9 1.1 1.61 2.37 2.09 3.8.48 1.41.72 2.98.72 4.65 0 2.21-.37 4.24-1.11 6.04-.75 1.82-1.83 3.4-3.23 4.69-1.39 1.28-3.1 2.28-5.09 2.97-1.95.68-4.29 1.02-6.94 1.02h-3.09v13.06c0 .49-.15.95-.44 1.34-.27.36-.65.63-1.12.8-.29.11-.65.19-1.1.26-.43.06-.92.1-1.52.1Zm7.53-22.97c1.43 0 2.61-.18 3.5-.52.87-.34 1.6-.81 2.18-1.39.58-.59 1.01-1.28 1.31-2.12.31-.86.47-1.82.47-2.85 0-1.38-.25-2.52-.73-3.4-.48-.86-1.07-1.51-1.74-1.91-.73-.44-1.5-.72-2.27-.83-.89-.13-1.77-.2-2.6-.2h-3.47v13.22h3.34Z"/><path d="M20.25 22.54c.88 0 1.71.04 2.52.11.8.07 1.75.23 2.84.47 1.09.24 2.21.69 3.34 1.34 1.14.66 2.1 1.46 2.89 2.42s1.4 2.07 1.83 3.33c.43 1.26.64 2.65.64 4.17 0 2.02-.33 3.84-1 5.47-.67 1.62-1.62 3.01-2.86 4.16-1.24 1.15-2.76 2.03-4.56 2.66-1.8.62-3.95.94-6.45.94h-4.59v14.56c0 .17-.05.31-.14.44s-.24.22-.44.3c-.2.07-.47.14-.81.19-.34.05-.78.08-1.3.08s-.95-.03-1.3-.08c-.34-.05-.62-.11-.83-.19-.21-.07-.35-.17-.44-.3a.783.783 0 0 1-.12-.44V24.85c0-.83.22-1.43.66-1.78.44-.35.93-.53 1.47-.53h8.66M14.85 43.2h4.84c1.62 0 2.97-.21 4.05-.62 1.07-.42 1.97-.99 2.7-1.73.73-.74 1.28-1.62 1.66-2.66s.56-2.15.56-3.36c0-1.65-.31-3.02-.92-4.12-.61-1.1-1.38-1.93-2.28-2.47-.91-.54-1.84-.89-2.81-1.03-.97-.15-1.91-.22-2.83-.22h-4.97v16.22m5.41-23.66h-8.67c-1.23 0-2.39.41-3.36 1.2-.81.65-1.77 1.9-1.77 4.11v37.3c0 .76.22 1.49.63 2.1.31.46.9 1.1 1.94 1.46.38.13.83.24 1.37.32.5.08 1.07.11 1.75.11s1.25-.04 1.74-.11c.56-.09 1.01-.19 1.41-.34.73-.27 1.36-.72 1.8-1.31.48-.65.74-1.42.74-2.24V50.59h1.59c2.82 0 5.33-.37 7.44-1.1 2.19-.76 4.08-1.86 5.62-3.29 1.56-1.44 2.77-3.19 3.6-5.22.81-1.98 1.22-4.2 1.22-6.61 0-1.84-.27-3.57-.8-5.13a13.51 13.51 0 0 0-2.36-4.28 13.616 13.616 0 0 0-3.7-3.11c-1.4-.81-2.81-1.37-4.2-1.68a27.28 27.28 0 0 0-3.21-.53c-.89-.08-1.83-.12-2.79-.12Zm-2.41 10.44h1.97c.76 0 1.56.06 2.38.19.58.09 1.15.3 1.72.64.44.26.85.72 1.2 1.35.36.65.54 1.54.54 2.67 0 .85-.13 1.64-.38 2.33a4.43 4.43 0 0 1-.97 1.58c-.43.44-.97.78-1.65 1.04-.71.28-1.73.42-2.96.42h-1.84V29.99Z" class="cls-1"/><path d="M65.75 64.66c-.69 0-1.24-.02-1.67-.05-.53-.04-.94-.12-1.27-.24-.47-.17-.85-.44-1.12-.8-.17-.22-.31-.48-.44-.77l-.04-.1-3.12-8.84H43.41l-2.97 8.7c-.11.34-.27.65-.48.92-.25.32-.59.59-1 .78-.35.17-.78.28-1.31.34-.43.05-.95.07-1.59.07s-1.23-.03-1.68-.09c-.71-.1-1.24-.32-1.64-.69-.47-.44-.72-1.08-.69-1.79.02-.44.13-.95.36-1.57l13.56-37.56c.15-.42.37-.78.64-1.08.21-.22.46-.41.76-.56a6.67 6.67 0 0 1-2.13-1.37c-.69-.66-1.2-1.46-1.53-2.39-.31-.87-.46-1.82-.46-2.84 0-1.08.18-2.08.52-2.98.36-.95.92-1.76 1.66-2.43.71-.64 1.56-1.15 2.54-1.5.96-.35 2.05-.53 3.25-.53 2.4 0 4.31.65 5.68 1.92 1.4 1.3 2.1 3.09 2.1 5.3 0 1.07-.19 2.07-.57 2.98-.39.93-.95 1.74-1.67 2.4-.64.59-1.41 1.08-2.28 1.44.31.15.58.34.79.58.29.31.51.67.66 1.09L69.5 60.57c.22.61.33 1.12.35 1.56.03.74-.24 1.39-.75 1.83-.41.36-.95.57-1.65.64-.45.05-1.01.07-1.71.07ZM55.64 46.57l-4.95-14.14-4.89 14.14h9.84ZM51.13 13.1c-.52 0-.89.1-1.08.31-.08.09-.33.35-.33 1.1 0 .61.12 1.06.34 1.35.14.18.56.28 1.12.28.49 0 .81-.1.97-.29.23-.28.34-.65.34-1.15 0-.54-.12-.97-.37-1.3-.18-.24-.65-.29-1-.29Z"/><path d="M51.21 8.79c2.02 0 3.57.51 4.66 1.52 1.08 1.01 1.62 2.41 1.62 4.2 0 .88-.15 1.68-.45 2.41-.3.73-.73 1.35-1.3 1.88-.56.52-1.25.93-2.05 1.23-.8.3-1.7.45-2.7.45-1.06 0-1.98-.14-2.77-.42-.78-.28-1.43-.67-1.95-1.17-.52-.5-.91-1.1-1.16-1.81-.25-.71-.38-1.49-.38-2.34s.14-1.71.42-2.44c.28-.73.7-1.35 1.27-1.86.56-.51 1.24-.91 2.05-1.2.8-.29 1.71-.44 2.73-.44m-.03 8.84c.96 0 1.67-.28 2.12-.83.46-.55.69-1.25.69-2.11s-.22-1.61-.67-2.2c-.45-.59-1.18-.89-2.2-.89-.96 0-1.68.26-2.17.78s-.73 1.23-.73 2.12c0 .96.22 1.72.67 2.28.45.56 1.21.84 2.3.84m-.34 4.72c.67 0 1.22.02 1.66.05.44.03.79.09 1.06.17.27.08.48.2.62.36.14.16.26.35.34.58l13.56 37.56c.17.46.25.83.27 1.11 0 .28-.07.5-.23.64-.17.15-.44.24-.83.28-.39.04-.9.06-1.55.06s-1.16-.02-1.55-.05c-.39-.03-.68-.08-.87-.16a.908.908 0 0 1-.44-.3c-.09-.12-.18-.28-.27-.47l-3.47-9.84H42.33l-3.31 9.72c-.06.19-.15.35-.25.48-.1.14-.26.25-.45.34-.2.09-.48.16-.84.2-.36.04-.84.06-1.42.06s-1.1-.03-1.48-.08c-.39-.05-.66-.15-.81-.3-.16-.15-.23-.36-.22-.64.01-.28.1-.65.27-1.11l13.56-37.56c.08-.23.19-.42.33-.56.13-.15.33-.26.59-.34.26-.08.59-.14 1-.17.41-.03.92-.05 1.55-.05m-7.16 25.72h14.06l-7.06-20.16h-.03l-6.97 20.16m7.52-42.26c-1.37 0-2.63.21-3.76.62a9.145 9.145 0 0 0-3.04 1.8c-.91.83-1.6 1.84-2.05 3-.41 1.07-.62 2.26-.62 3.52 0 1.19.18 2.32.55 3.34a7.675 7.675 0 0 0 1.91 2.98c.22.22.46.42.72.61-.15.25-.27.52-.37.81L30.99 60.03c-.27.75-.42 1.42-.44 2.02-.04 1.15.37 2.2 1.17 2.95.62.58 1.43.94 2.45 1.07.53.07 1.14.11 1.89.11.7 0 1.28-.03 1.76-.08.7-.08 1.29-.24 1.79-.47.63-.3 1.15-.71 1.55-1.23.31-.4.55-.86.72-1.37l2.61-7.67h12.54l2.76 7.84.04.1.04.1c.17.39.38.75.61 1.07.44.59 1.07 1.04 1.81 1.31.46.17.99.27 1.66.33.47.04 1.05.06 1.79.06s1.37-.03 1.87-.08c1.01-.11 1.84-.45 2.48-1 .86-.75 1.31-1.82 1.26-3.01-.03-.62-.17-1.27-.44-2.03L57.35 22.49c-.11-.29-.24-.57-.39-.83.29-.21.57-.43.83-.67.88-.81 1.56-1.8 2.03-2.93.45-1.1.68-2.29.68-3.56 0-3.3-1.4-5.3-2.58-6.4-1.65-1.54-3.91-2.32-6.7-2.32Zm-3.32 39.28L50.68 37l2.83 8.07h-5.62Z" class="cls-1"/><path d="M22.34 117.66c-.47 0-.89 0-1.25-.02a6.76 6.76 0 0 1-1.09-.1c-.32-.05-.59-.12-.82-.18-.32-.09-.62-.23-.87-.4-.3-.2-.54-.45-.73-.74-.13-.2-.24-.43-.34-.7L4.02 77.94c-.22-.6-.33-1.11-.35-1.55-.03-.76.27-1.43.84-1.88.42-.33.97-.52 1.68-.59.47-.05 1.09-.07 1.84-.07.63 0 1.13.02 1.53.05.51.05.93.14 1.27.29.44.2.79.48 1.05.84.16.23.3.5.43.81l10.2 29.93 9.89-29.78c.07-.28.19-.57.34-.83.17-.31.52-.73 1.18-.99.36-.14.78-.23 1.31-.28.42-.04.95-.05 1.62-.05.72 0 1.29.03 1.74.09.74.1 1.28.35 1.66.76.31.34.65.92.55 1.83-.04.4-.17.88-.38 1.46l-13.18 37.55c-.16.45-.4.83-.7 1.13-.31.32-.72.56-1.21.71-.38.12-.82.2-1.34.24-.44.03-.98.05-1.63.05Z"/><path d="M36.84 75.35c.65 0 1.16.03 1.53.08.38.05.63.15.77.3s.19.36.16.64-.13.65-.3 1.11l-13.19 37.56c-.08.23-.2.42-.34.56-.15.15-.35.26-.61.34-.26.08-.59.14-1 .17s-.91.05-1.52.05c-.46 0-.86 0-1.2-.02-.34-.01-.64-.04-.89-.08s-.46-.09-.64-.14c-.18-.05-.33-.12-.45-.2-.12-.08-.22-.18-.3-.3-.07-.11-.14-.25-.2-.42L5.43 77.44c-.17-.46-.26-.83-.27-1.11-.01-.28.08-.49.27-.64.19-.15.49-.24.91-.28.42-.04.98-.06 1.69-.06.58 0 1.05.02 1.39.05s.61.09.8.17c.19.08.33.19.42.33.09.14.18.31.27.52l11.59 34.03h.03l11.28-33.97c.06-.23.14-.42.22-.56.08-.15.23-.26.44-.34.21-.08.5-.14.88-.17s.88-.05 1.5-.05m0-3c-.71 0-1.29.02-1.75.06-.68.06-1.25.18-1.74.38-1.07.43-1.64 1.13-1.93 1.64-.2.35-.36.73-.48 1.17l-8.46 25.49-8.73-25.64-.03-.08-.03-.07a5.68 5.68 0 0 0-.58-1.1c-.41-.6-.97-1.05-1.66-1.36-.51-.22-1.07-.36-1.75-.42-.44-.04-.98-.06-1.66-.06-.81 0-1.46.03-1.98.08-1 .1-1.8.39-2.45.9-.96.75-1.47 1.88-1.42 3.13.02.6.17 1.26.44 2.02l13.21 37.53v.03l.02.03c.14.37.3.69.49.99.29.46.68.86 1.16 1.18.37.25.8.45 1.27.58.29.09.61.16.98.22.4.07.82.1 1.29.12.38.01.81.02 1.3.02.69 0 1.26-.02 1.75-.06.64-.05 1.19-.15 1.68-.3.72-.23 1.34-.6 1.82-1.08.45-.45.8-1.01 1.04-1.65l13.2-37.59c.24-.66.39-1.25.45-1.77.13-1.15-.2-2.22-.93-3.01-.63-.67-1.48-1.08-2.55-1.23-.53-.07-1.16-.11-1.95-.11Z" class="cls-1"/><path d="M47.78 117.47c-.81 0-1.58-.27-2.27-.79-.56-.42-1.23-1.27-1.23-2.9V77.72c0-1.62.67-2.47 1.24-2.9.69-.52 1.45-.79 2.26-.79h19.19c.44 0 .86.12 1.23.34.41.25.71.61.92 1.08.13.31.23.65.31 1.04.07.38.1.83.1 1.32 0 .46-.03.88-.1 1.25-.08.42-.18.76-.32 1.05-.21.45-.52.8-.9 1.04-.38.23-.79.35-1.24.35H52.66v9.69h12.06c.47 0 .92.14 1.3.4.33.23.6.53.8.89.19.33.31.72.38 1.21a9.383 9.383 0 0 1 0 2.44c-.07.47-.2.85-.38 1.17a2.3 2.3 0 0 1-.94.94c-.36.19-.75.29-1.16.29H52.66V110h14.53c.44 0 .86.12 1.23.34.35.22.64.52.87.9.21.36.34.75.41 1.23.05.37.08.79.08 1.27 0 .44-.03.84-.08 1.2-.07.47-.2.87-.39 1.21-.24.42-.53.74-.89.96-.38.23-.79.35-1.24.35H47.77Z"/><path d="M66.96 75.54c.17 0 .32.04.45.12.13.08.24.22.33.41.08.19.15.42.2.7.05.28.08.63.08 1.05 0 .38-.03.7-.08.98s-.12.51-.2.69c-.08.18-.19.31-.33.39-.14.08-.29.12-.45.12H51.15v12.69h13.56c.17 0 .32.05.45.14.13.09.25.22.34.39.09.17.16.4.2.69.04.29.06.64.06 1.03 0 .38-.02.7-.06.97-.04.27-.11.49-.2.66a.85.85 0 0 1-.34.36c-.14.07-.29.11-.45.11H51.15v14.47h16.03c.17 0 .32.04.45.12.13.08.25.21.36.39.1.18.18.41.22.69.04.28.06.63.06 1.05 0 .38-.02.7-.06.98-.04.28-.12.52-.22.7-.11.19-.22.32-.36.41-.14.08-.29.12-.45.12H47.77c-.48 0-.93-.16-1.36-.48-.43-.32-.64-.89-.64-1.7V77.73c0-.81.21-1.38.64-1.7.43-.32.88-.48 1.36-.48h19.19m0-3H47.77c-1.13 0-2.23.38-3.17 1.09-.83.63-1.83 1.85-1.83 4.1v36.06c0 2.25 1 3.47 1.84 4.1.93.71 2.03 1.09 3.16 1.09h19.41c.72 0 1.42-.2 2.02-.57.57-.35 1.05-.86 1.4-1.49.29-.52.47-1.09.57-1.72.07-.45.1-.92.1-1.44 0-.56-.03-1.05-.09-1.48-.1-.67-.3-1.26-.59-1.76-.37-.62-.82-1.09-1.37-1.43a3.85 3.85 0 0 0-2.04-.58H54.15v-8.47h10.56c.66 0 1.29-.16 1.87-.46.64-.34 1.17-.87 1.54-1.54.27-.48.45-1.02.55-1.66.07-.45.1-.91.1-1.44s-.03-1.02-.09-1.45c-.1-.69-.28-1.25-.56-1.74-.32-.57-.74-1.03-1.25-1.38-.65-.45-1.4-.68-2.17-.68H54.14v-6.69h12.81c.72 0 1.42-.2 2.02-.57a3.86 3.86 0 0 0 1.47-1.67c.2-.43.34-.89.44-1.42.09-.48.13-.99.13-1.54 0-.59-.04-1.11-.13-1.58-.1-.53-.23-.97-.41-1.37-.34-.75-.85-1.35-1.49-1.75a3.85 3.85 0 0 0-2.04-.58Z" class="cls-1"/><path d="M79.71 117.66c-.57 0-1.07-.03-1.5-.09-.46-.07-.83-.15-1.12-.26-.52-.18-.92-.48-1.19-.88-.24-.36-.38-.8-.38-1.27V76.35c0-.49.15-.95.44-1.34.28-.37.68-.65 1.19-.82.31-.1.66-.18 1.09-.25.43-.06.91-.1 1.46-.1.6 0 1.1.03 1.52.09.44.07.8.15 1.09.25.53.19.92.48 1.19.88.25.38.38.82.38 1.27v38.81c0 .46-.13.9-.38 1.27-.27.41-.67.7-1.2.88-.29.1-.65.19-1.09.25-.43.06-.93.1-1.52.1Z"/><path d="M79.71 75.35c.52 0 .95.03 1.3.08.34.05.62.12.83.19.21.07.35.17.44.3.08.12.12.27.12.44v38.81c0 .17-.04.31-.12.44-.08.12-.23.22-.44.3-.21.07-.48.13-.83.19-.34.05-.78.08-1.3.08s-.93-.03-1.28-.08-.64-.11-.84-.19c-.21-.07-.35-.17-.44-.3a.783.783 0 0 1-.12-.44V76.36c0-.17.05-.31.14-.44s.25-.22.47-.3c.22-.07.5-.13.84-.19.34-.05.75-.08 1.23-.08m0-3c-.63 0-1.18.04-1.68.11-.52.08-.96.18-1.34.31-.82.27-1.46.73-1.93 1.35s-.74 1.42-.74 2.24v38.81c0 .76.22 1.49.63 2.11.3.46.9 1.1 1.95 1.46.38.13.82.24 1.38.32.51.07 1.07.11 1.72.11s1.25-.04 1.74-.11c.54-.08.99-.19 1.37-.32 1.03-.36 1.62-.99 1.94-1.45.42-.63.63-1.36.63-2.11V76.37c0-.76-.22-1.48-.63-2.1-.32-.48-.91-1.1-1.94-1.47-.4-.14-.84-.24-1.37-.32-.51-.08-1.08-.11-1.75-.11Z" class="cls-1"/><path d="M94.61 120.5c-3.37 0-6.11-2.74-6.11-6.11V66.5h-8.89c-3.37 0-6.11-2.74-6.11-6.11V13.61c0-3.37 2.74-6.11 6.11-6.11h38.79c3.37 0 6.11 2.74 6.11 6.11v100.78c0 3.37-2.74 6.11-6.11 6.11H94.61Z" style="fill:#333"/><path d="M118.39 9c2.54 0 4.61 2.06 4.61 4.61v100.78c0 2.54-2.06 4.61-4.61 4.61H94.6c-2.54 0-4.61-2.06-4.61-4.61V65H79.6c-2.54 0-4.61-2.06-4.61-4.61V13.61c0-2.54 2.06-4.61 4.61-4.61h38.79m0-3H79.6c-4.19 0-7.61 3.41-7.61 7.61v46.78c0 4.19 3.41 7.61 7.61 7.61h7.39v46.39c0 4.19 3.41 7.61 7.61 7.61h23.79c4.19 0 7.61-3.41 7.61-7.61V13.61c0-4.19-3.41-7.61-7.61-7.61Z" class="cls-1"/><path d="M112.5 27.24V87.5h-9.32" style="fill:none;stroke:#fff;stroke-miterlimit:10;stroke-width:4px"/><path d="M104.64 82.51 96 87.5l8.64 4.99v-9.98z" class="cls-1"/></svg>
